<svg xmlns="http://www.w3.org/2000/svg" width="170.667" height="170.667" version="1.0" viewBox="0 0 128 128"><path d="M2 2C.9 3.1 0 5 0 6.2c0 1.6 7.9 10.2 27.7 30L55.5 64 27.7 91.8C7.9 111.6 0 120.2 0 121.8c0 2.8 3.4 6.2 6.2 6.2 1.6 0 10.2-7.9 30-27.7L64 72.5l27.8 27.8c19.8 19.8 28.4 27.7 30 27.7 2.8 0 6.2-3.4 6.2-6.2 0-1.6-7.9-10.2-27.7-30L72.5 64l27.8-27.8C120.1 16.4 128 7.8 128 6.2c0-1.2-.9-3.1-2-4.2s-3-2-4.2-2c-1.6 0-10.2 7.9-30 27.7L64 55.5 36.2 27.7C16.4 7.9 7.8 0 6.2 0 5 0 3.1.9 2 2z"/></svg>