<?xml version="1.0" standalone="no"?>
<!DOCTYPE svg PUBLIC "-//W3C//DTD SVG 20010904//EN"
 "http://www.w3.org/TR/2001/REC-SVG-20010904/DTD/svg10.dtd">
<svg version="1.0" xmlns="http://www.w3.org/2000/svg"
 width="128.000000pt" height="128.000000pt" viewBox="0 0 128.000000 128.000000"
 preserveAspectRatio="xMidYMid meet">
<metadata>
Created by potrace 1.16, written by Peter Selinger 2001-2019
</metadata>
<g transform="translate(0.000000,128.000000) scale(0.100000,-0.100000)"
fill="#000000" stroke="none">
<path d="M20 1260 c-11 -11 -20 -30 -20 -42 0 -16 79 -102 277 -300 l278 -278
-278 -278 c-198 -198 -277 -284 -277 -300 0 -28 34 -62 62 -62 16 0 102 79
300 277 l278 278 278 -278 c198 -198 284 -277 300 -277 28 0 62 34 62 62 0 16
-79 102 -277 300 l-278 278 278 278 c198 198 277 284 277 300 0 12 -9 31 -20
42 -11 11 -30 20 -42 20 -16 0 -102 -79 -300 -277 l-278 -278 -278 278 c-198
198 -284 277 -300 277 -12 0 -31 -9 -42 -20z"/>
</g>
</svg>
