<svg version="1.0" xmlns="http://www.w3.org/2000/svg" width="170.667" height="170.667" viewBox="0 0 128 128"><path d="M62.5 4.7c-16.8 2.2-35.9 14.7-44 28.7C4.4 57.6 8.2 86.3 28 106.1c17.6 17.6 43.5 22.7 65.7 12.9 11.1-4.9 20.9-15.4 23.5-25.2 1.1-4.2 1-4.9-.7-6.8-1.4-1.5-3.1-2-7.4-2.1-12.5-.1-27-6.3-33.7-14.5-1.8-2.2-4.6-6.7-6.1-10-2.5-5.2-2.8-7-2.8-15.9.1-11.3 1.9-17.8 8-27.7 6.8-11 3.7-14.2-12-12.1zM61 17.5c0 .2-1.1 3.8-2.5 7.9-11.2 33.3 7.2 64.1 41.9 70.1l3.8.6-2.8 3c-1.6 1.7-5.2 4.5-8 6.4-26.1 17.3-61.5 3.1-70.8-28.4-2-7-2.1-20.2 0-27.2 4.2-14.5 15.8-26.4 30.2-31 5.9-1.8 8.2-2.3 8.2-1.4z"/></svg>