<svg version="1.0" xmlns="http://www.w3.org/2000/svg" width="170.667" height="170.667" viewBox="0 0 128 128"><path d="M76.5 1.2c-3.4.9-9.3 6.3-38.4 35.2C3.1 71.2.1 74.8 0 81.9c0 8.1 1.8 11 16.9 26.5 9.8 9.9 16.1 15.6 19.1 17 4.3 2 6.2 2.1 45.5 2.4 22.5.2 41.9.1 43.2-.2 2.4-.7 3.7-3.4 2.7-6-.6-1.4-3.9-1.6-33-1.6-17.8 0-32.4-.3-32.4-.8 0-.4 13.8-14.4 30.6-31.2 16.8-16.8 31.4-32.2 32.5-34.2 2.3-4.5 2.5-11.5.4-16.6C123.6 32.7 97.1 5.7 92 3 87.3.6 81.4-.1 76.5 1.2zm12 9c2.9 1.5 27.4 25.8 29.1 29 1.8 3.4 1.8 8.2 0 11.6-.8 1.5-12.2 13.4-25.3 26.5L68.5 101l-21-21-21-21 25-24.9C67.7 17.9 77.4 9 79 8.8c2.9-.5 6.6 0 9.5 1.4zM57 112.5c-3.1 3.1-6.9 5.9-8.7 6.4-6.7 1.9-9.8 0-25-15.2C11.7 92 9.1 88.8 8.5 85.7c-1.1-5.5 0-8 6.2-14.7l5.6-6.1 21.1 21L62.5 107l-5.5 5.5z"/><path d="M78.2 25.2c-.7.7-1.2 1.9-1.2 2.8 0 1.8 20.9 23 22.7 23 1.5 0 4.3-2.8 4.3-4.2C104 45 82.8 24 81 24c-.9 0-2.1.5-2.8 1.2z"/></svg>