<?xml version="1.0" standalone="no"?>
<!DOCTYPE svg PUBLIC "-//W3C//DTD SVG 20010904//EN"
 "http://www.w3.org/TR/2001/REC-SVG-20010904/DTD/svg10.dtd">
<svg version="1.0" xmlns="http://www.w3.org/2000/svg"
 width="128.000000pt" height="128.000000pt" viewBox="0 0 128.000000 128.000000"
 preserveAspectRatio="xMidYMid meet">
<metadata>
Created by potrace 1.16, written by Peter Selinger 2001-2019
</metadata>
<g transform="translate(0.000000,128.000000) scale(0.100000,-0.100000)"
fill="#000000" stroke="none">
<path d="M17 1142 c-15 -17 -17 -66 -17 -504 0 -457 1 -486 18 -501 17 -15 67
-17 519 -17 388 0 503 3 511 12 6 7 61 152 123 322 105 291 111 311 98 335
-12 22 -23 26 -67 29 l-52 3 0 79 c0 58 -4 83 -16 94 -13 14 -54 16 -290 16
l-274 0 -55 75 -56 75 -213 0 c-194 0 -214 -2 -229 -18z m473 -97 l53 -75 281
-2 281 -3 3 -72 3 -73 -428 0 c-235 0 -434 -4 -441 -9 -13 -8 -74 -162 -163
-411 l-34 -95 -3 395 c-1 217 0 401 3 407 3 10 52 13 198 13 l194 0 53 -75z
m743 -272 c5 -7 -32 -113 -174 -500 l-41 -113 -484 0 c-265 0 -485 3 -487 8
-4 7 200 575 216 600 6 9 115 12 487 12 263 0 481 -3 483 -7z"/>
</g>
</svg>
