<svg xmlns="http://www.w3.org/2000/svg" width="170.667" height="170.667" version="1.0" viewBox="0 0 128 128"><path d="M1.7 13.8C.2 15.5 0 20.4 0 64.2c0 45.7.1 48.6 1.8 50.1s6.7 1.7 51.9 1.7c38.8 0 50.3-.3 51.1-1.2.6-.7 6.1-15.2 12.3-32.2 10.5-29.1 11.1-31.1 9.8-33.5-1.2-2.2-2.3-2.6-6.7-2.9l-5.2-.3V38c0-5.8-.4-8.3-1.6-9.4-1.3-1.4-5.4-1.6-29-1.6H57l-5.5-7.5-5.6-7.5H24.6c-19.4 0-21.4.2-22.9 1.8zM49 23.5l5.3 7.5 28.1.2 28.1.3.3 7.2.3 7.3H68.3c-23.5 0-43.4.4-44.1.9-1.3.8-7.4 16.2-16.3 41.1l-3.4 9.5L4.2 58c-.1-21.7 0-40.1.3-40.7.3-1 5.2-1.3 19.8-1.3h19.4l5.3 7.5zm74.3 27.2c.5.7-3.2 11.3-17.4 50l-4.1 11.3H53.4c-26.5 0-48.5-.3-48.7-.8-.4-.7 20-57.5 21.6-60 .6-.9 11.5-1.2 48.7-1.2 26.3 0 48.1.3 48.3.7z"/></svg>