<svg xmlns="http://www.w3.org/2000/svg" width="64" height="64" fill="none" viewBox="0 0 16 16"><path d="M8.197 4.523a1.532 1.532 0 0 0-1.051.196c-.318.19-.563.49-.687.85a.75.75 0 0 1-1.418-.49 3.1 3.1 0 0 1 1.335-1.648 3.032 3.032 0 0 1 2.079-.386 3.057 3.057 0 0 1 1.829 1.065 3.13 3.13 0 0 1 .716 2c0 .487-.092.905-.275 1.266-.182.36-.431.62-.679.817-.194.156-.41.291-.581.398l-.096.06a2.507 2.507 0 0 0-.452.34.643.643 0 0 0-.172.292.75.75 0 0 1-1.499-.033c0-.163.035-.324.086-.479.08-.243.232-.543.515-.832.239-.243.505-.419.72-.554.044-.029.086-.056.126-.08.169-.106.296-.186.415-.282a.976.976 0 0 0 .279-.323c.059-.117.113-.296.113-.59v-.002a1.63 1.63 0 0 0-.372-1.041c-.24-.29-.57-.481-.931-.544z" clip-rule="evenodd"/><path d="M8 11a1 1 0 1 0 0 2h.007a1 1 0 1 0 0-2H8z"/><path d="M0 8a8 8 0 1 1 16 0A8 8 0 0 1 0 8zm8-6.5a6.5 6.5 0 1 0 0 13 6.5 6.5 0 0 0 0-13z"/></svg>