<svg version="1.0" xmlns="http://www.w3.org/2000/svg" width="682.667" height="682.667" viewBox="0 0 512 512"><path d="M246.3 14.6c-3.2 1.2-30.9 25.9-122.6 109.4C-7.6 243.6.5 235.5.5 248.5c.1 10.8 5.7 19.4 15.5 23.9 4 1.8 7 2.1 25.8 2.4l21.2.4v106.2c0 118.4-.5 110.4 6.9 115.3l3.4 2.3h135.4l3.4-2.3c7.2-4.8 6.9-1.7 6.9-74.5V357h74v65.2c0 72.8-.3 69.7 6.9 74.5l3.4 2.3h135.4l3.4-2.3c7.4-4.9 6.9 3.1 6.9-115.4V275.2l21.3-.4c18.8-.3 21.7-.6 25.7-2.4 9.9-4.5 15.4-13.1 15.5-23.9 0-11.7-1.3-13.5-28.1-37.8L460 189.5v-67c0-74.7.3-71.4-6.9-76.2l-3.4-2.3h-56.6c-54.3 0-56.7.1-59.8 2-4.8 2.9-6.6 6.4-7.2 14l-.6 6.7-27.8-25.3c-30-27.2-31.9-28.5-42.1-28.3-2.8 0-7 .7-9.3 1.5zm47.9 64.5c20.5 18.7 38.9 34.8 40.8 35.6 7.1 3.1 16.8-.5 19.6-7.3 1-2.3 1.4-7.8 1.4-18.4V74h74v62.6c0 53.7.2 63 1.5 65.8.8 1.7 10.9 11.7 22.4 22.1l20.9 19-22.2.5c-12.7.3-23.2 1-24.6 1.7-3.2 1.4-6.6 5.1-7.9 8.6-.8 1.9-1.1 36.2-1.1 108.8V469h-96v-65.3c0-72 .2-69.3-6.3-74.1-2.8-2.1-3.8-2.1-60.7-2.1-56.9 0-57.9 0-60.7 2.1-6.5 4.8-6.3 2.1-6.3 74.1V469H93V363.1c0-72.6-.3-106.9-1.1-108.8-1.3-3.5-4.7-7.2-7.9-8.6-1.4-.7-11.9-1.4-24.6-1.7l-22.1-.5 108.9-99.3C206.1 89.7 255.5 45 256 45s17.7 15.3 38.2 34.1z"/></svg>