<svg xmlns="http://www.w3.org/2000/svg" width="170.667" height="170.667" version="1.0" viewBox="0 0 128 128"><path d="M48.2 1.5c-3 .7-9.2 3.2-14 5.5-12.3 6.1-21.4 15.4-27.5 28.1C1.3 46.2 0 52 0 64s1.3 17.8 6.7 28.9C13 106 22 115 35.1 121.3 46.2 126.7 52 128 64 128s17.8-1.3 28.9-6.7c7.5-3.6 10.8-5.9 16.6-11.8 5.9-5.8 8.2-9.1 11.8-16.6C126.7 81.8 128 76 128 64s-1.3-17.8-6.7-28.9C115 22 106 13 92.9 6.7c-5.2-2.5-11.8-5-14.7-5.6-7-1.5-23.4-1.3-30 .4zm26.7 12c26.1 6.2 44.5 32.5 40.3 57.7-2.8 16.8-13.6 31.5-28.7 38.9-15.6 7.6-29.4 7.6-45 0-20-9.9-32.2-32.4-28.7-53.4 4.9-29.5 34-49.8 62.1-43.2z"/><path d="M58.2 29.3c-3 3.2-2.9 8.7.1 11.5C63.4 45.6 72 42 72 35.1c0-7.3-8.9-11-13.8-5.8zM59.6 55.6c-1.4 1.3-1.6 4.7-1.6 21.9 0 22.4.3 23.5 6 23.5s6-1.1 6-23.5S69.7 54 64 54c-1.6 0-3.6.7-4.4 1.6z"/></svg>