<svg xmlns="http://www.w3.org/2000/svg" width="682.667" height="682.667" version="1.0" viewBox="0 0 512 512"><path d="M249.5 1.4c-4.1 1.8-8.3 6.9-9 10.9-.3 1.8-.5 15.4-.3 30.4.3 25.6.4 27.3 2.4 29.9 3.9 5.3 7.1 6.9 13.4 6.9 6.3 0 9.5-1.6 13.4-6.9 2-2.6 2.1-4 2.1-32.6s-.1-30-2.1-32.6c-1.1-1.5-3.2-3.7-4.6-4.7-3.3-2.5-11.3-3.2-15.3-1.3zm175.9 64.2c-1.7.8-11.7 10.2-22.2 20.7-20.5 20.7-21.3 22-19.7 30.4.9 4.9 6.9 10.9 11.8 11.8 8.4 1.6 9.7.8 30.4-19.7 10.6-10.5 19.9-20.6 20.8-22.4 6.2-13.1-8.1-27.2-21.1-20.8zM81.6 71c-4.2 1.3-9.5 6.8-10.7 11.2-2.1 8-.6 10.4 20.4 31.7 10.6 10.6 20.6 19.9 22.4 20.7 12.9 5.6 26.2-7.1 21.3-20.3-1.6-4.1-37.6-40.1-42.5-42.4-4.4-2-6.5-2.2-10.9-.9zm159.9 41.6c-32.2 4.9-52.1 13-74 30-27.6 21.4-46.8 52.9-53.2 87.7-2.4 12.6-2.4 38.8 0 51.4 10.9 59 57 105.1 116 116 12.6 2.4 38.8 2.4 51.4 0 51.8-9.6 94.1-46.2 110.7-96 5.5-16.3 7-26.6 7-45.7s-1.5-29.4-7-45.7c-16.6-49.5-59.1-86.6-110.1-95.9-8.6-1.5-34.8-2.7-40.8-1.8zM9.5 241.4C2.8 244.3-1 252 .4 259.5c.9 4.7 5.9 10.2 10.4 11.6 2.4.6 13.6.9 31.4.7 26.1-.3 27.8-.4 30.4-2.4 5.3-3.9 6.9-7.1 6.9-13.4 0-6.3-1.6-9.5-6.9-13.4-2.6-2-4.2-2.1-31.4-2.3-22.3-.2-29.4 0-31.7 1.1zm432 0c-6.7 2.9-10.5 10.6-9.1 18.1.9 4.7 5.9 10.2 10.4 11.6 2.4.6 13.6.9 31.4.7 26.1-.3 27.8-.4 30.4-2.4 5.3-3.9 6.9-7.1 6.9-13.4 0-6.3-1.6-9.5-6.9-13.4-2.6-2-4.2-2.1-31.4-2.3-22.3-.2-29.4 0-31.7 1.1zm-315 125.5c-5.1 1.3-6.5 2.4-25.7 21.8-15.7 15.8-18.8 19.5-19.7 23-3.2 11.8 7.8 22.7 19.4 19.3 3.2-.9 7.8-5 23.7-20.8 21.4-21.4 22.7-23.4 20.8-31.6-1-4.5-6.1-10.2-9.9-11.1-1.4-.3-3.3-.7-4.1-.9-.8-.2-2.8-.1-4.5.3zm257.4 11.3c-6.9 3.9-9.7 12.7-6.5 20.1.8 1.8 10.1 11.8 20.7 22.4 16.4 16.1 20.1 19.3 23.7 20.3 11.5 3 22.2-7.7 19.1-19.3-.9-3.5-4.1-7.3-20.2-23.6-10.6-10.6-20.6-19.9-22.4-20.7-4.6-2-10.2-1.7-14.4.8zm-134.4 55.2c-4.1 1.8-8.3 6.9-9 10.9-.3 1.8-.5 15.4-.3 30.4.3 25.6.4 27.3 2.4 29.9 3.9 5.3 7.1 6.9 13.4 6.9 6.3 0 9.5-1.6 13.4-6.9 2-2.6 2.1-4 2.1-32.6s-.1-30-2.1-32.6c-1.1-1.5-3.2-3.7-4.6-4.7-3.3-2.5-11.3-3.2-15.3-1.3z"/></svg>