<svg xmlns="http://www.w3.org/2000/svg" width="170.667" height="170.667" version="1.0" viewBox="0 0 128 128"><path d="M0 64v64h128V0H0v64zm120 0v56H8V8h112v56z"/><path d="M15 26v11h7v-9.5L32.5 38 43 48.5l2.7-2.8 2.8-2.7L38 32.5 27.5 22H37v-7H15v11zm76-7.5V22h9.5L90 32.5 79.5 43l2.8 2.7 2.7 2.8L95.5 38 106 27.5V37h7V15H91v3.5zM32.2 90.2 22 100.5V91h-7v22h22v-7h-9.5L38 95.5l10.4-10.4-2.4-2.6c-1.3-1.4-2.6-2.5-2.9-2.5-.4 0-5.2 4.6-10.9 10.2zM82 82.5l-2.4 2.6L90 95.5l10.5 10.5H91v7h22V91h-7v9.5L95.7 90.2C90.1 84.6 85.2 80 84.9 80c-.3 0-1.6 1.1-2.9 2.5z"/></svg>