<svg xmlns="http://www.w3.org/2000/svg" width="170.667" height="170.667" version="1.0" viewBox="0 0 128 128"><path d="M53.7 8.8C48.9 13.6 45 18 45 18.6c0 1.5 4.4 5.4 6 5.4.8 0 2.9-1.4 4.7-3.2l3.3-3.2v11c0 11.9.6 13.4 5 13.4s5-1.5 5-13.4v-11l3.3 3.2c1.8 1.8 4.3 3.2 5.4 3.2 2 0 5.3-3.3 5.3-5.4C83 17 65.7 0 64 0c-.8 0-5.5 3.9-10.3 8.8zm-44.9 45C4 58.7 0 63.3 0 64.1c0 .8 4 5.5 9 10.4 8.4 8.3 9.1 8.8 11.4 7.7 1.4-.6 2.8-2.3 3.2-3.7.5-2.1 0-3.3-2.7-6.1L17.6 69h11c11.9 0 13.4-.6 13.4-5s-1.5-5-13.4-5h-11l3.2-3.3c1.8-1.8 3.2-4.3 3.2-5.4 0-2.1-3.3-5.3-5.4-5.3-.5 0-4.9 4-9.8 8.8zm97.4-7.2c-3.1 2.1-2.7 5.2 1 9.1l3.2 3.3h-11c-11.9 0-13.4.6-13.4 5s1.5 5 13.4 5h11l-3.3 3.4c-2.7 2.8-3.2 4-2.7 6.1.4 1.4 1.8 3.1 3.2 3.7 2.3 1.1 3 .6 11.4-7.7 5-4.9 9-9.6 9-10.4 0-1.6-17-19.1-18.6-19.1-.5 0-2 .7-3.2 1.6zm-45.7 8.3c-6.2 2.6-8.1 11-3.4 15.6 1.4 1.4 4.1 2.8 6.1 3.1 2.9.5 4.1.1 6.7-2.2 2.1-1.9 3.4-4.2 3.8-6.6.5-3.3.2-4.1-3-7.3-3.5-3.5-6.2-4.2-10.2-2.6zm-.3 32.3c-.8.8-1.2 5-1.2 12.2v11l-3.3-3.2c-1.8-1.8-4-3.2-4.8-3.2-1.6 0-5.9 4-5.9 5.5 0 1.6 17.4 18.5 19 18.5 1.7 0 19-17 19-18.6 0-2.1-3.3-5.4-5.3-5.4-1.1 0-3.6 1.4-5.4 3.2l-3.3 3.2v-11c0-11.9-.6-13.4-5-13.4-1.4 0-3.1.5-3.8 1.2z"/></svg>