<svg xmlns="http://www.w3.org/2000/svg" width="170.667" height="170.667" version="1.0" viewBox="0 0 128 128"><path d="M92.7 12.8c-1 1-1.7 2.6-1.7 3.5 0 .9 4.5 6.8 10.1 13.2l10 11.5H74.2c-22.3 0-39.2.4-42.7 1.1-10.6 1.9-19 7.5-24.9 16.3C-6.1 77.5 1 103 21.8 113.2l6.7 3.3 44.6.3c40 .2 44.8.1 46.3-1.3 1.8-1.8 2-4.3.6-6.5-.8-1.3-7.3-1.6-44.7-2-42.9-.5-43.9-.5-48.4-2.7-21.1-10.5-21.4-40-.4-49.9 5-2.4 5.1-2.4 44.3-2.4 21.5 0 39.2.3 39.2.6s-4.1 5.1-9 10.7c-10.2 11.5-11.3 13.8-8.2 17 1.8 1.7 2.6 1.9 4.7 1.2 3.6-1.4 30.5-32.4 30.5-35.3 0-1.3-2.1-4.5-5.2-8-2.9-3.1-9.5-10.5-14.7-16.5C98.3 10.5 96 9.1 92.7 12.8z"/></svg>