<svg xmlns="http://www.w3.org/2000/svg" width="126.667" height="138.667" version="1.0" viewBox="0 0 95 104"><path d="M72 2.2c-16.2 2.2-37.7 6.2-51 9.3-8 1.9-15.5 3.7-16.7 4-2.3.5-3.1 2.9-1.4 4 .5.3 11.4-1.3 24.3-3.5 26.5-4.5 52.9-8.2 53.5-7.6.3.2-5.3 3.4-12.4 7.1-7 3.7-17 8.9-22.1 11.6-20.1 10.6-25.9 15.5-24.5 20.8 1.2 4.8 4.9 5.5 32.3 6.2 14 .4 25.7.7 25.9.8 1.5.4-5.5 5.6-19 14.2C44 79.8 40 83.4 40 88.1c0 4.5 2.4 5.6 21.5 9.8 12.8 2.8 21.4 3.1 22.9.8.9-1.4.8-2-.4-2.7-1.7-1.1-11.8-3.3-25-5.5-5.2-.9-10-2-10.7-2.4-1.9-1-.5-2.1 16.2-12.6C81.4 65 86.3 61.1 88 57.1c1-2.6 1-3.5-.4-5.5-2.4-3.8-7.4-4.6-29.6-4.7-11.3 0-22.3-.3-24.5-.7l-4-.8 9.5-5.5c5.2-3.1 15.4-8.6 22.5-12.4C86.9 14.3 93 10.1 93 6.1c0-5-5.6-6.1-21-3.9z"/></svg>