<svg version="1.0" xmlns="http://www.w3.org/2000/svg" width="170.667" height="170.667" viewBox="0 0 128 128"><path d="M45.5 1.5c-3.8 1.9-5.7 4.9-6.4 10l-.6 4-10.2.5c-9 .4-10.4.8-12.7 2.9-5 4.7-4.1 13.7 1.8 17.6l2.5 1.6.3 39.2c.3 37.1.4 39.4 2.3 42.6 1.1 1.9 3.3 4.3 4.8 5.5 2.8 2 3.9 2.1 36.5 2.1 33.3 0 33.7 0 36.8-2.2 6.3-4.5 6.4-5 6.4-48v-39l2.5-1.1c3-1.4 6.5-6.8 6.5-10 0-3.1-2.5-7.7-5.2-9.6-1.7-1.2-4.8-1.6-12-1.6H89v-3.1c0-4.7-2.8-9.6-6.5-11.3-4.6-2.2-32.6-2.3-37-.1zm35.7 6.2c1 .9 1.8 3 1.8 5V16H45v-3.2C45 6.5 46.5 6 63.8 6c13.1 0 15.8.3 17.4 1.7zm27.2 15.9c2.1 2 2 4.3-.1 6.6-1.5 1.7-4.2 1.8-44.4 1.8-37.5 0-42.9-.2-44.3-1.6-.9-.8-1.6-2.4-1.6-3.4s.7-2.6 1.6-3.4C21 22.2 26.4 22 64 22s43 .2 44.4 1.6zM101 77.1v39.1l-2.9 2.9-2.9 2.9H32.8l-2.9-2.9-2.9-2.9V38h74v39.1z"/><path d="M44.6 47.5c-1.4 1.4-1.6 5.3-1.6 30.4 0 24.3.2 29 1.5 30.1.8.7 2.2 1 3 .6 1.3-.5 1.5-4.7 1.5-30.4 0-24.4-.3-30.2-1.4-31.1-1.1-.9-1.8-.8-3 .4zM80.3 46.7c-1 .4-1.3 7.5-1.3 30.9 0 27.3.2 30.5 1.6 31.1 4 1.5 4.4-1.7 4.4-31.3 0-24.4-.2-28.5-1.6-29.8-.8-.9-1.6-1.6-1.7-1.5-.1 0-.8.3-1.4.6zM61.7 47.6c-.4.4-.7 13.9-.7 29.9 0 24.8.2 29.4 1.5 30.5 1.2 1 1.8 1 3 0 1.3-1.1 1.5-5.4 1.3-30.9-.3-28.9-.3-29.6-2.3-29.9-1.2-.2-2.4 0-2.8.4z"/></svg>