<svg xmlns="http://www.w3.org/2000/svg" width="170.667" height="170.667" version="1.0" viewBox="0 0 128 128"><path d="M19.9 21.7c-5.2 6-11.8 13.4-14.6 16.5-3.2 3.5-5.3 6.7-5.3 8 0 2.9 26.9 33.9 30.5 35.3 2.1.7 2.9.5 4.7-1.2 3.1-3.2 2-5.5-8.2-17-4.9-5.6-9-10.4-9-10.7 0-.3 17.7-.6 39.3-.6 39.1 0 39.2 0 44.2 2.4 9.9 4.7 15.4 13.5 15.5 24.6 0 11.1-5.8 20.2-15.9 25.3-4.5 2.2-5.5 2.2-48.4 2.7-37.4.4-43.9.7-44.7 2-1.4 2.2-1.2 4.7.6 6.5 1.5 1.4 6.3 1.5 46.3 1.3l44.6-.3 6.7-3.3c28.5-14 28.6-53.6.3-68-7.2-3.6-14.4-4.2-52.7-4.2H16.9l10-11.5C32.5 23.1 37 17.1 37 16.1c0-2.3-3.1-5.1-5.7-5.1-1.4 0-5.2 3.6-11.4 10.7z"/></svg>