<svg xmlns="http://www.w3.org/2000/svg" width="170.667" height="170.667" version="1.0" viewBox="0 0 128 128"><path d="M41.3 1.4C27.5 4.8 15.5 14.5 9.5 27.1.1 47.2 4.3 69.2 20.3 83.6c15 13.5 36.4 16.2 54.7 6.9l4.9-2.5 1.8 2.4c1.1 1.3 9.6 10.3 19 20.1 15.1 15.7 17.4 17.7 19.6 17.1 3.2-.8 4.1-3.3 2.3-6-.7-1.2-9.3-10.3-19-20.4L85.9 82.9l3.5-4.2c11.7-14.3 14.2-35.1 6.1-51.5C85.4 6.8 63-3.8 41.3 1.4zm21.9 8.8c6.1 1.3 15.4 7.3 19.6 12.6C96.4 39.9 94.4 63.9 78.4 78c-8.5 7.4-21.5 11.1-32.2 9.1-28.4-5.2-42.3-36.9-26.7-60.7 6-9.2 16.3-15.8 26.9-17.4 5.4-.8 9.1-.5 16.8 1.2z"/><path d="M49.7 23.8c-1.3 1.5-1.7 3.9-1.7 11V44h-9.4c-10.1 0-12 .9-11.4 5.2.3 2.2.7 2.3 10.6 2.6l10.2.3v9.4C48 71 49.1 74 52.4 74c3.3 0 4.6-3.5 4.6-12.8v-9.1l9.6-.3c7.9-.2 9.9-.6 10.8-2 .8-1.3.8-2.3 0-3.5-.9-1.5-2.9-1.9-10.8-2.1l-9.6-.3v-9.3c0-7.7-.3-9.6-1.8-10.9-2.4-2.2-3.5-2.1-5.5.1z"/></svg>