<svg xmlns="http://www.w3.org/2000/svg" width="170.667" height="170.667" version="1.0" viewBox="0 0 128 128"><path d="M41.3 1.4C27.5 4.8 15.5 14.5 9.5 27.1.1 47.2 4.3 69.2 20.3 83.6c15 13.5 36.4 16.2 54.7 6.9l4.9-2.5 1.8 2.4c1.1 1.3 9.6 10.3 19 20.1 15.1 15.7 17.4 17.7 19.6 17.1 3.2-.8 4.1-3.3 2.3-6-.7-1.2-9.3-10.3-19-20.4L85.9 82.9l3.5-4.2c11.7-14.3 14.2-35.1 6.1-51.5C85.4 6.8 63-3.8 41.3 1.4zm21.9 8.8c6.1 1.3 15.4 7.3 19.6 12.6C96.4 39.9 94.4 63.9 78.4 78c-8.5 7.4-21.5 11.1-32.2 9.1-28.4-5.2-42.3-36.9-26.7-60.7 6-9.2 16.3-15.8 26.9-17.4 5.4-.8 9.1-.5 16.8 1.2z"/><path d="M28.1 45.4c-.7.8-1.1 2.5-.9 3.8l.3 2.3h24.4c22.1 0 24.5-.2 25.5-1.8.8-1.2.8-2.2 0-3.5-1-1.5-3.5-1.7-24.6-2-19.7-.2-23.7 0-24.7 1.2z"/></svg>