<svg version="1.0" xmlns="http://www.w3.org/2000/svg" width="308" height="404" viewBox="0 0 231 303"><path d="M186 1.7c-25.5.5-85.1 2.4-110.1 3.4-18 .7-33.3.7-47.5 0l-20.9-1-2.4 2.3C1 10.5.4 24.3 1.8 87.9c.7 30.6 1.3 77.9 1.3 105.1.1 27.2.5 50.8.8 52.5l.8 3 1.2-4.4C9.6 231 11 208.4 11 160.5c-.1-22-.5-49.9-1-62-1.5-34-2.4-80.8-1.7-83.7l.7-2.5 27.7.4c16 .3 47.8-.2 74.8-1.1 25.9-.9 60.5-1.9 77.1-2.2l30.1-.7 1.6 2.4c1.6 2.1 1.7 9 1.7 76.5 0 40.7-.3 104.4-.7 141.5l-.6 67.4-9.1-.3c-5-.1-20.3-.9-34.1-1.7-41.3-2.5-116.5-4-132.5-2.6-7.5.6-17 1.1-21.1 1.1-4.5 0-8.2.5-9.3 1.3-1.6 1.2-1.6 1.4.2 3 1.8 1.7 7.4 1.9 74.3 2.8 39.8.5 86.8 1.2 104.5 1.6 28.3.5 32.2.4 33.6-1 2.4-2.4 3-43.3 2.6-175.7-.3-107.6-.4-113.7-2.1-117.2-1.1-2.1-3.2-4.3-5.2-5.2-3.4-1.6-3.8-1.6-36.5-.9z"/><path d="M147 60.1c-23.5 6.3-46.5 14-65 21.9-8 3.4-17.5 7.3-21.2 8.8-3.7 1.5-6.8 3-6.8 3.4 0 2 6.4.2 26.2-7.1 11.7-4.3 28.1-10 36.3-12.6 20.1-6.2 50-13.7 53.3-13.3 2.5.3 2 .8-5.4 6.4-4.5 3.4-17.9 12.1-29.9 19.5-32.1 19.9-56.9 36.5-61.9 41.5-7.1 7-7.1 13.1-.1 16 4.6 1.9 14.5 1.8 46.5-.5 24.3-1.7 35.8-1.7 37.6.2 2.9 2.8-7.5 11.5-39 32.7-32.8 22-39.9 28.7-38.1 35.7 1.5 5.9 8.1 8.9 27 11.8 21.5 3.3 29.5 7.5 29.5 15.4 0 5.1 1.6 5.3 2.9.4.9-3.2.7-4.5-1.2-8.3-3.3-6.5-10.8-10.3-28.3-14-14.7-3.1-22.4-5.6-22.4-7.1 0-2.3 9.2-9.3 35-26.7 29.6-19.9 40.8-29.6 42.7-37 .8-3.4-1.6-8.1-5.1-9.9-4.9-2.6-18.2-2.7-48.1-.3-26.6 2-36.5 2-36.5-.1 0-1.5 13.8-11.3 38.3-27.1 53.9-35 65.7-44 65.7-50.1 0-6.2-7.4-6.1-32 .4z"/></svg>